{"title":"Chris.Ryans.Elite.World.Cops.S01E03.Kazakhstan.PDTV.XviD","uid":4722516,"size":366768308,"categoryP":"video","categoryS":"tv_shows","magnet":"?xt=urn:btih:ba1fb59aeaad5dcb62dbd7f03074b71fa840ee01&amp;dn=Chris.Ryans.Elite.World.Cops.S01E03.Kazakhstan.PDTV.XviD&amp;tr=udp%3A%2F%2Ftracker.openbittorrent.com%3A80&amp;tr=udp%3A%2F%2Fopen.demonii.com%3A1337&amp;tr=udp%3A%2F%2Ftracker.coppersurfer.tk%3A6969&amp;tr=udp%3A%2F%2Fexodus.desync.com%3A6969","seeders":1,"leechers":3,"uploader":"rokfelerr","files":-1,"time":1234592751,"description":"The author and former SAS soldier spends a week in Almaty, the capital of Kazakhstan, and trains with a unit of 120 men coached to handle situations beyond the usual police remit\n\n\n:: ScreenShot ::  &lt;a href=&quot;\nhttp://bayimg.com/eaNCDAAbJ&quot; rel=&quot;nofollow&quot; target=&quot;_NEW&quot;&gt;\nhttp://bayimg.com/eaNCDAAbJ&lt;/a&gt;\n\n\nVideo\nFormat                           : MPEG-4 Visual\nCodec ID/Hint                    : XviD\nDuration                         : 43mn 50s\nBit rate                         : 976 Kbps\nWidth                            : 576 pixels\nHeight                           : 320 pixels\nDisplay aspect ratio             : 16/9\nFrame rate                       : 25.000 fps\nResolution                       : 24 bits\nColorimetry                      : 4:2:0\nScan type                        : Progressive\nBits/(Pixel*Frame)               : 0.212\nStream size                      : 306 MiB (88%)\nWriting library                  : XviD 1.0.3 (UTC 2004-12-20)\n\nAudio\nFormat                           : MPEG Audio\nFormat version                   : Version 1\nFormat profile                   : Layer 3\nCodec ID                         : 55\nCodec ID/Hint                    : MP3\nDuration                         : 43mn 50s\nBit rate mode                    : Variable\nBit rate                         : 126 Kbps\nNominal bit rate                 : 128 Kbps\nChannel(s)                       : 2 channels\nSampling rate                    : 48.0 KHz\nResolution                       : 16 bits\nStream size                      : 39.6 MiB (11%)\nAlignment                        : Aligned on interleaves\nInterleave, duration             : 24 ms (0.60 video frame)\nInterleave, preload duration     : 505 ms\nWriting library                  : LAME3.90.\nEncoding settings                : ABR\n\n","torrent":{"xt":"urn:btih:ba1fb59aeaad5dcb62dbd7f03074b71fa840ee01","amp;dn":"Chris.Ryans.Elite.World.Cops.S01E03.Kazakhstan.PDTV.XviD","amp;tr":["udp%3A%2F%2Ftracker.openbittorrent.com%3A80","udp%3A%2F%2Fopen.demonii.com%3A1337","udp%3A%2F%2Ftracker.coppersurfer.tk%3A6969","udp%3A%2F%2Fexodus.desync.com%3A6969"],"infoHash":"ba1fb59aeaad5dcb62dbd7f03074b71fa840ee01","infoHashBuffer":{"type":"Buffer","data":[186,31,181,154,234,173,93,203,98,219,215,240,48,116,183,31,168,64,238,1]},"announce":[],"urlList":[]}}